<svg xmlns="http://www.w3.org/2000/svg" version="1.1" xmlns:xlink="http://www.w3.org/1999/xlink" xmlns:svgjs="http://svgjs.dev/svgjs" width="1440" height="560" preserveAspectRatio="none" viewBox="0 0 1440 560"><g mask="url(&quot;#SvgjsMask1081&quot;)" fill="none"><rect width="1440" height="560" x="0" y="0" fill="rgba(255, 255, 255, 1)"></rect><path d="M432.9 182.84a5.6 5.6 0 1 0-8.79-6.93 5.6 5.6 0 1 0 8.79 6.93zM420.34 172.94a5.6 5.6 0 1 0-8.8-6.94 5.6 5.6 0 1 0 8.8 6.94zM407.77 163.03a5.6 5.6 0 1 0-8.8-6.93 5.6 5.6 0 1 0 8.8 6.93zM395.2 153.13a5.6 5.6 0 1 0-8.79-6.93 5.6 5.6 0 1 0 8.79 6.93zM467.94 190.08a5.6 5.6 0 1 0-8.8-6.93 5.6 5.6 0 1 0 8.8 6.93zM455.37 180.18a5.6 5.6 0 1 0-8.79-6.94 5.6 5.6 0 1 0 8.79 6.94zM442.81 170.27a5.6 5.6 0 1 0-8.8-6.93 5.6 5.6 0 1 0 8.8 6.93zM430.24 160.37a5.6 5.6 0 1 0-8.8-6.93 5.6 5.6 0 1 0 8.8 6.93z" stroke="rgba(0, 55, 163, 0.4)" stroke-width="1.28" stroke-dasharray="4, 4"></path><rect width="370.44" height="370.44" clip-path="url(&quot;#SvgjsClipPath1082&quot;)" x="771.62" y="45.35" fill="url(&quot;#SvgjsPattern1083&quot;)" transform="rotate(174.22, 956.84, 230.57)"></rect><rect width="324" height="324" clip-path="url(&quot;#SvgjsClipPath1084&quot;)" x="915.67" y="287.07" fill="url(&quot;#SvgjsPattern1085&quot;)" transform="rotate(24.57, 1077.67, 449.07)"></rect><path d="M774.7900000000001 551.61 L721.96 500.40999999999997L784.7503068481215 489.6346931518785z" fill="rgba(0, 55, 163, 0.6)"></path><circle r="46.666666666666664" cx="152.6" cy="225.88" stroke="rgba(0, 55, 163, 0.6)" stroke-width="2.83" stroke-dasharray="3, 2"></circle><circle r="46.666666666666664" cx="365.29" cy="501.03" fill="rgba(0, 55, 163, 0.2)"></circle><rect width="342.24" height="342.24" clip-path="url(&quot;#SvgjsClipPath1086&quot;)" x="51.83" y="93.22" fill="url(&quot;#SvgjsPattern1087&quot;)" transform="rotate(81.68, 222.95, 264.34)"></rect><rect width="67.2" height="67.2" clip-path="url(&quot;#SvgjsClipPath1088&quot;)" x="882.24" y="5.33" fill="url(&quot;#SvgjsPattern1089&quot;)" transform="rotate(107.32, 915.84, 38.93)"></rect><rect width="204.48" height="204.48" clip-path="url(&quot;#SvgjsClipPath1090&quot;)" x="1058.91" y="426.85" fill="url(&quot;#SvgjsPattern1091&quot;)" transform="rotate(254.56, 1161.15, 529.09)"></rect><path d="M477.58 128.26a5.6 5.6 0 1 0 10.82-2.91 5.6 5.6 0 1 0-10.82 2.91zM493.03 124.11a5.6 5.6 0 1 0 10.82-2.91 5.6 5.6 0 1 0-10.82 2.91zM508.48 119.95a5.6 5.6 0 1 0 10.82-2.91 5.6 5.6 0 1 0-10.82 2.91zM523.94 115.8a5.6 5.6 0 1 0 10.81-2.91 5.6 5.6 0 1 0-10.81 2.91zM450.83 152.02a5.6 5.6 0 1 0 10.82-2.91 5.6 5.6 0 1 0-10.82 2.91zM466.29 147.87a5.6 5.6 0 1 0 10.81-2.91 5.6 5.6 0 1 0-10.81 2.91zM481.74 143.71a5.6 5.6 0 1 0 10.81-2.91 5.6 5.6 0 1 0-10.81 2.91zM497.19 139.56a5.6 5.6 0 1 0 10.81-2.91 5.6 5.6 0 1 0-10.81 2.91zM424.09 175.78a5.6 5.6 0 1 0 10.81-2.91 5.6 5.6 0 1 0-10.81 2.91zM439.54 171.63a5.6 5.6 0 1 0 10.81-2.91 5.6 5.6 0 1 0-10.81 2.91zM454.99 167.47a5.6 5.6 0 1 0 10.81-2.91 5.6 5.6 0 1 0-10.81 2.91zM470.44 163.32a5.6 5.6 0 1 0 10.82-2.91 5.6 5.6 0 1 0-10.82 2.91z" stroke="rgba(0, 55, 163, 0.4)" stroke-width="1.39" stroke-dasharray="2, 2"></path><circle r="76.97240145425647" cx="1408.94" cy="317.61" fill="rgba(0, 55, 163, 0.4)"></circle><path d="M868.6199999999999 283.28 L860.29 217.07999999999998L837.5461066901368 277.0888933098631z" fill="rgba(0, 55, 163, 0.4)"></path></g><defs><mask id="SvgjsMask1081"><rect width="1440" height="560" fill="#ffffff"></rect></mask><pattern x="0" y="0" width="8.82" height="8.82" patternUnits="userSpaceOnUse" id="SvgjsPattern1083"><path d="M0 8.82L4.41 0L8.82 8.82" stroke="rgba(0, 55, 163, 0.6)" fill="none"></path></pattern><clipPath id="SvgjsClipPath1082"><circle r="92.61" cx="956.84" cy="230.57"></circle></clipPath><pattern x="0" y="0" width="6" height="6" patternUnits="userSpaceOnUse" id="SvgjsPattern1085"><path d="M0 6L3 0L6 6" stroke="rgba(0, 55, 163, 0.4)" fill="none"></path></pattern><clipPath id="SvgjsClipPath1084"><circle r="81" cx="1077.67" cy="449.07"></circle></clipPath><pattern x="0" y="0" width="342.24" height="7.44" patternUnits="userSpaceOnUse" id="SvgjsPattern1087"><rect width="342.24" height="3.72" x="0" y="0" fill="rgba(0, 55, 163, 0.2)"></rect><rect width="342.24" height="3.72" x="0" y="3.72" fill="rgba(0, 0, 0, 0)"></rect></pattern><clipPath id="SvgjsClipPath1086"><circle r="85.56" cx="222.95" cy="264.34"></circle></clipPath><pattern x="0" y="0" width="67.2" height="6.72" patternUnits="userSpaceOnUse" id="SvgjsPattern1089"><rect width="67.2" height="3.36" x="0" y="0" fill="rgba(0, 55, 163, 0.2)"></rect><rect width="67.2" height="3.36" x="0" y="3.36" fill="rgba(0, 0, 0, 0)"></rect></pattern><clipPath id="SvgjsClipPath1088"><circle r="16.8" cx="915.84" cy="38.93"></circle></clipPath><pattern x="0" y="0" width="12.78" height="12.78" patternUnits="userSpaceOnUse" id="SvgjsPattern1091"><path d="M0 12.78L6.39 0L12.78 12.78" stroke="rgba(0, 55, 163, 0.6)" fill="none"></path></pattern><clipPath id="SvgjsClipPath1090"><circle r="51.12" cx="1161.15" cy="529.09"></circle></clipPath></defs></svg>