<svg xmlns="http://www.w3.org/2000/svg" version="1.1" xmlns:xlink="http://www.w3.org/1999/xlink" xmlns:svgjs="http://svgjs.dev/svgjs" width="1440" height="560" preserveAspectRatio="none" viewBox="0 0 1440 560"><g mask="url(&quot;#SvgjsMask1009&quot;)" fill="none"><rect width="1440" height="560" x="0" y="0" fill="rgba(255, 255, 255, 1)"></rect><path d="M336.13 569.34a29.21 29.21 0 1 0-25.23-52.69z" fill="rgba(0, 55, 163, 0.2)"></path><path d="M540.67 472.21L563.04 472.21L563.04 494.58L540.67 494.58z" fill="rgba(0, 55, 163, 0.2)"></path><path d="M565.62 544.32 a20.71 20.71 0 1 0 41.42 0 a20.71 20.71 0 1 0 -41.42 0z" stroke="rgba(0, 55, 163, 0.4)"></path><path d="M461.36 232.71a21.73 21.73 0 1 0 18.96 39.11z" stroke="rgba(0, 55, 163, 0.2)"></path><path d="M933.61 88.76L984.42 88.76L984.42 139.57L933.61 139.57z" fill="rgba(0, 55, 163, 0.4)"></path><path d="M23.48 65.38 a25.71 25.71 0 1 0 51.42 0 a25.71 25.71 0 1 0 -51.42 0z" stroke="rgba(0, 55, 163, 0.4)"></path><path d="M1134.85 555.78L1188.18 555.78L1188.18 609.11L1134.85 609.11z" fill="rgba(0, 55, 163, 0.6)"></path><path d="M381 315.44a45.05 45.05 0 1 0-75.44 49.25z" fill="rgba(0, 55, 163, 0.6)"></path><path d="M730.22 56.42a5.43 5.43 0 1 0-7.71-7.65z" fill="rgba(0, 55, 163, 0.4)"></path><path d="M1259.6 145.07L1263.86 145.07L1263.86 149.33L1259.6 149.33z" fill="rgba(0, 55, 163, 0.6)"></path><path d="M471.59 526.01a28.24 28.24 0 1 0-53.33-18.58z" stroke="rgba(0, 55, 163, 0.6)"></path><path d="M426.48 382.06L452.25 382.06L452.25 386.69L426.48 386.69z" fill="rgba(0, 55, 163, 0.2)"></path><path d="M1430.14 382.8a48.88 48.88 0 1 0-89.51-39.31z" fill="rgba(0, 55, 163, 0.2)"></path><path d="M167.45 3.39a14.6 14.6 0 1 0 21.6 19.65z" fill="rgba(0, 55, 163, 0.6)"></path><path d="M236.69 206.47L261.3 206.47L261.3 218.68L236.69 218.68z" stroke="rgba(0, 55, 163, 0.2)"></path><path d="M195.15 230.62L221.67 230.62L221.67 257.14L195.15 257.14z" fill="rgba(0, 55, 163, 0.4)"></path><path d="M97.29 259.36a25.45 25.45 0 1 0-46.15 21.48z" fill="rgba(0, 55, 163, 0.4)"></path><path d="M1009.24 152.9 a54.29 54.29 0 1 0 108.58 0 a54.29 54.29 0 1 0 -108.58 0z" stroke="rgba(0, 55, 163, 0.2)"></path><path d="M855.5 168.86a54.98 54.98 0 1 0 75.26 80.16z" stroke="rgba(0, 55, 163, 0.2)"></path><path d="M651.39 433.9L655.2 433.9L655.2 437.71L651.39 437.71z" fill="rgba(0, 55, 163, 0.6)"></path><path d="M416.43 488.35a52.33 52.33 0 1 0 93.68 46.66z" stroke="rgba(0, 55, 163, 0.2)"></path><path d="M170.44 50.02a21.63 21.63 0 1 0-19.25 38.74z" stroke="rgba(0, 55, 163, 0.4)"></path><path d="M926.17 395.17L981.87 395.17L981.87 426.19L926.17 426.19z" fill="rgba(0, 55, 163, 0.2)"></path><path d="M1374.92 284.14a52.5 52.5 0 1 0-66.63-81.14z" fill="rgba(0, 55, 163, 0.4)"></path><path d="M553.44 83.61a42.6 42.6 0 1 0-47.03 71.04z" stroke="rgba(0, 55, 163, 0.4)"></path><path d="M372.97 242.08a26.09 26.09 0 1 0 51.04 10.88z" stroke="rgba(0, 55, 163, 0.6)"></path><path d="M1422.47 321.55L1464.85 321.55L1464.85 375.61L1422.47 375.61z" fill="rgba(0, 55, 163, 0.4)"></path><path d="M1231.81 387.92 a38.71 38.71 0 1 0 77.42 0 a38.71 38.71 0 1 0 -77.42 0z" fill="rgba(0, 55, 163, 0.2)"></path><path d="M73.69 296.27 a26.17 26.17 0 1 0 52.34 0 a26.17 26.17 0 1 0 -52.34 0z" fill="rgba(0, 55, 163, 0.2)"></path><path d="M204.61 415.14L243.75 415.14L243.75 447.51L204.61 447.51z" fill="rgba(0, 55, 163, 0.6)"></path><path d="M381.13 424.49 a33.99 33.99 0 1 0 67.98 0 a33.99 33.99 0 1 0 -67.98 0z" stroke="rgba(0, 55, 163, 0.2)"></path><path d="M18.75 342.72a32.12 32.12 0 1 0-30.42 56.57z" stroke="rgba(0, 55, 163, 0.6)"></path><path d="M151.25 517.61a27.71 27.71 0 1 0 44.75 32.69z" fill="rgba(0, 55, 163, 0.6)"></path></g><defs><mask id="SvgjsMask1009"><rect width="1440" height="560" fill="#ffffff"></rect></mask></defs></svg>