<?xml version="1.0" standalone="no"?><svg xmlns:xlink="http://www.w3.org/1999/xlink" xmlns="http://www.w3.org/2000/svg" viewBox="0 0 100 76.92381723468935" preserveAspectRatio="xMaxYMax slice"><g transform="scale(0.15276271367684574)"><rect x="0" y="0" width="654.6202" height="503.554" fill="#ffffff"/><rect x="0" y="0" width="50.355399999999996" height="50.355399999999996" fill="#ffffff"/><rect x="352.4878" y="0" width="50.355399999999996" height="50.355399999999996" fill="#ffffff"/><rect x="352.49" y="0" width="25.18" height="25.18" fill="#f5fcff"/><rect x="352.49" y="25.18" width="25.18" height="25.18" fill="#ffdfdc"/><g transform="translate(377.67,25.18) scale(1.259) rotate(0)"><rect width="20" height="2" fill="#caecff"/><rect y="4" width="20" height="2" fill="#caecff"/><rect y="8" width="20" height="2" fill="#caecff"/><rect y="12" width="20" height="2" fill="#caecff"/><rect y="16" width="20" height="2" fill="#caecff"/></g><rect x="453.2" y="0" width="50.36" height="50.36" fill="#e1f4ff"/><g transform="translate(503.55,0) scale(2.518) rotate(0)"><path d="M10 0L20 10L10 20L0 10L10 0Z" fill="#fff7f6"/></g><rect x="604.2647999999999" y="0" width="50.355399999999996" height="50.355399999999996" fill="#ffffff"/><g transform="translate(604.26,0) scale(1.259) rotate(0)"><rect width="20" height="2" fill="#fff8f7"/><rect y="4" width="20" height="2" fill="#fff8f7"/><rect y="8" width="20" height="2" fill="#fff8f7"/><rect y="12" width="20" height="2" fill="#fff8f7"/><rect y="16" width="20" height="2" fill="#fff8f7"/></g><g transform="translate(604.26,25.18) scale(1.259) rotate(0)"><rect width="20" height="10" fill="#ffb8b3"/></g><rect x="100.71079999999999" y="50.355399999999996" width="50.355399999999996" height="50.355399999999996" fill="#ffffff"/><rect x="100.71" y="50.36" width="25.18" height="25.18" fill="#d6f0ff"/><rect x="201.42159999999998" y="50.355399999999996" width="50.355399999999996" height="50.355399999999996" fill="#ffffff"/><circle cx="239.19" cy="88.12" r="12.59" fill="#ffb9b4"/><rect x="251.777" y="50.355399999999996" width="50.355399999999996" height="50.355399999999996" fill="#ffffff"/><rect x="352.4878" y="50.355399999999996" width="50.355399999999996" height="50.355399999999996" fill="#ffffff"/><rect x="0" y="100.71079999999999" width="50.355399999999996" height="50.355399999999996" fill="#ffffff"/><circle cx="12.59" cy="138.48" r="12.59" fill="#c3e9ff"/><rect x="100.71079999999999" y="100.71079999999999" width="50.355399999999996" height="50.355399999999996" fill="#ffffff"/><g transform="translate(100.71,100.71) scale(1.259) rotate(0)"><rect width="20" height="2" fill="#e2f5ff"/><rect y="4" width="20" height="2" fill="#e2f5ff"/><rect y="8" width="20" height="2" fill="#e2f5ff"/><rect y="12" width="20" height="2" fill="#e2f5ff"/><rect y="16" width="20" height="2" fill="#e2f5ff"/></g><rect x="125.89" y="100.71" width="25.18" height="25.18" fill="#f6fcff"/><rect x="302.13239999999996" y="100.71079999999999" width="50.355399999999996" height="50.355399999999996" fill="#ffffff"/><rect x="327.31" y="100.71" width="25.18" height="25.18" fill="#ffdedc"/><circle cx="339.9" cy="138.48" r="12.59" fill="#fff8f7"/><g transform="translate(402.84,100.71) scale(2.518) rotate(0)"><rect width="20" height="10" fill="#ffdbd9"/></g><rect x="453.2" y="100.71" width="50.36" height="50.36" fill="#c6ebff"/><rect x="100.71079999999999" y="151.06619999999998" width="50.355399999999996" height="50.355399999999996" fill="#ffffff"/><rect x="125.89" y="176.24" width="25.18" height="25.18" fill="#e8f7ff"/><circle cx="478.38" cy="176.25" r="25.18" fill="#ffdedb"/><rect x="604.26" y="151.07" width="50.36" height="50.36" fill="#ffada8"/><g transform="translate(151.07,201.42) scale(2.518) rotate(0)"><rect width="20" height="2" fill="#def3ff"/><rect y="4" width="20" height="2" fill="#def3ff"/><rect y="8" width="20" height="2" fill="#def3ff"/><rect y="12" width="20" height="2" fill="#def3ff"/><rect y="16" width="20" height="2" fill="#def3ff"/></g><rect x="201.42159999999998" y="201.42159999999998" width="50.355399999999996" height="50.355399999999996" fill="#ffffff"/><g transform="translate(226.6,201.42) scale(1.259) rotate(0)"><rect width="20" height="2" fill="#bae6ff"/><rect y="4" width="20" height="2" fill="#bae6ff"/><rect y="8" width="20" height="2" fill="#bae6ff"/><rect y="12" width="20" height="2" fill="#bae6ff"/><rect y="16" width="20" height="2" fill="#bae6ff"/></g><g transform="translate(201.42,226.6) scale(1.259) rotate(0)"><path d="M10 0L20 10L10 20L0 10L10 0Z" fill="#d8f1ff"/></g><g transform="translate(226.6,226.6) scale(1.259) rotate(0)"><path fill-rule="evenodd" clip-rule="evenodd" d="M10 20C15.5228 20 20 15.5228 20 10C20 4.47715 15.5228 0 10 0C4.47715 0 0 4.47715 0 10C0 15.5228 4.47715 20 10 20ZM10 17C13.866 17 17 13.866 17 10C17 6.13401 13.866 3 10 3C6.13401 3 3 6.13401 3 10C3 13.866 6.13401 17 10 17Z" fill="#ffcecb"/></g><g transform="translate(251.78,201.42) scale(2.518) rotate(0)"><rect width="20" height="10" fill="#ddf3ff"/></g><g transform="translate(302.13,201.42) scale(2.518) rotate(0)"><path d="M10 0L20 10L10 20L0 10L10 0Z" fill="#def3ff"/></g><g transform="translate(352.49,201.42) scale(2.518) rotate(0)"><path fill-rule="evenodd" clip-rule="evenodd" d="M10 20C15.5228 20 20 15.5228 20 10C20 4.47715 15.5228 0 10 0C4.47715 0 0 4.47715 0 10C0 15.5228 4.47715 20 10 20ZM10 17C13.866 17 17 13.866 17 10C17 6.13401 13.866 3 10 3C6.13401 3 3 6.13401 3 10C3 13.866 6.13401 17 10 17Z" fill="#fff2f1"/></g><rect x="402.84319999999997" y="201.42159999999998" width="50.355399999999996" height="50.355399999999996" fill="#ffffff"/><g transform="translate(428.02,201.42) scale(1.259) rotate(0)"><rect width="20" height="2" fill="#ffbcb7"/><rect y="4" width="20" height="2" fill="#ffbcb7"/><rect y="8" width="20" height="2" fill="#ffbcb7"/><rect y="12" width="20" height="2" fill="#ffbcb7"/><rect y="16" width="20" height="2" fill="#ffbcb7"/></g><g transform="translate(428.02,226.6) scale(1.259) rotate(0)"><path fill-rule="evenodd" clip-rule="evenodd" d="M10 20C15.5228 20 20 15.5228 20 10C20 4.47715 15.5228 0 10 0C4.47715 0 0 4.47715 0 10C0 15.5228 4.47715 20 10 20ZM10 17C13.866 17 17 13.866 17 10C17 6.13401 13.866 3 10 3C6.13401 3 3 6.13401 3 10C3 13.866 6.13401 17 10 17Z" fill="#fffaf9"/></g><rect x="553.9094" y="201.42159999999998" width="50.355399999999996" height="50.355399999999996" fill="#ffffff"/><rect x="579.09" y="201.42" width="25.18" height="25.18" fill="#ffcbc8"/><g transform="translate(553.91,226.6) scale(1.259) rotate(0)"><rect width="20" height="10" fill="#ffc4bf"/></g><g transform="translate(604.26,201.42) scale(2.518) rotate(0)"><path fill-rule="evenodd" clip-rule="evenodd" d="M10 20C15.5228 20 20 15.5228 20 10C20 4.47715 15.5228 0 10 0C4.47715 0 0 4.47715 0 10C0 15.5228 4.47715 20 10 20ZM10 17C13.866 17 17 13.866 17 10C17 6.13401 13.866 3 10 3C6.13401 3 3 6.13401 3 10C3 13.866 6.13401 17 10 17Z" fill="#ffc6c2"/></g><rect x="201.42159999999998" y="251.777" width="50.355399999999996" height="50.355399999999996" fill="#ffffff"/><circle cx="239.19" cy="289.53999999999996" r="12.59" fill="#d1eeff"/><rect x="251.777" y="251.777" width="50.355399999999996" height="50.355399999999996" fill="#ffffff"/><rect x="352.49" y="251.78" width="50.36" height="50.36" fill="#ffeeec"/><g transform="translate(503.55,251.78) scale(2.518) rotate(0)"><path fill-rule="evenodd" clip-rule="evenodd" d="M10 20C15.5228 20 20 15.5228 20 10C20 4.47715 15.5228 0 10 0C4.47715 0 0 4.47715 0 10C0 15.5228 4.47715 20 10 20ZM10 17C13.866 17 17 13.866 17 10C17 6.13401 13.866 3 10 3C6.13401 3 3 6.13401 3 10C3 13.866 6.13401 17 10 17Z" fill="#c4eaff"/></g><rect x="50.36" y="302.13" width="50.36" height="50.36" fill="#ffd2cf"/><rect x="100.71079999999999" y="302.13239999999996" width="50.355399999999996" height="50.355399999999996" fill="#ffffff"/><circle cx="138.48" cy="314.71999999999997" r="12.59" fill="#ffd6d3"/><circle cx="113.3" cy="339.9" r="12.59" fill="#ffcfcb"/><circle cx="377.67" cy="327.31" r="25.18" fill="#d5f0ff"/><g transform="translate(402.84,302.13) scale(2.518) rotate(0)"><rect width="20" height="2" fill="#f5fbff"/><rect y="4" width="20" height="2" fill="#f5fbff"/><rect y="8" width="20" height="2" fill="#f5fbff"/><rect y="12" width="20" height="2" fill="#f5fbff"/><rect y="16" width="20" height="2" fill="#f5fbff"/></g><rect x="151.07" y="352.49" width="50.36" height="50.36" fill="#eff9ff"/><g transform="translate(352.49,352.49) scale(2.518) rotate(0)"><path fill-rule="evenodd" clip-rule="evenodd" d="M10 20C15.5228 20 20 15.5228 20 10C20 4.47715 15.5228 0 10 0C4.47715 0 0 4.47715 0 10C0 15.5228 4.47715 20 10 20ZM10 17C13.866 17 17 13.866 17 10C17 6.13401 13.866 3 10 3C6.13401 3 3 6.13401 3 10C3 13.866 6.13401 17 10 17Z" fill="#bfe8ff"/></g><rect x="604.2647999999999" y="352.4878" width="50.355399999999996" height="50.355399999999996" fill="#ffffff"/><rect x="604.26" y="377.67" width="25.18" height="25.18" fill="#f8fcff"/><rect x="50.355399999999996" y="402.84319999999997" width="50.355399999999996" height="50.355399999999996" fill="#ffffff"/><g transform="translate(50.36,402.84) scale(1.259) rotate(0)"><path fill-rule="evenodd" clip-rule="evenodd" d="M10 20C15.5228 20 20 15.5228 20 10C20 4.47715 15.5228 0 10 0C4.47715 0 0 4.47715 0 10C0 15.5228 4.47715 20 10 20ZM10 17C13.866 17 17 13.866 17 10C17 6.13401 13.866 3 10 3C6.13401 3 3 6.13401 3 10C3 13.866 6.13401 17 10 17Z" fill="#ffd5d2"/></g><rect x="75.53" y="402.84" width="25.18" height="25.18" fill="#ffaba5"/><circle cx="176.25" cy="428.02" r="25.18" fill="#eff9ff"/><circle cx="327.31" cy="428.02" r="25.18" fill="#feffff"/><rect x="352.4878" y="402.84319999999997" width="50.355399999999996" height="50.355399999999996" fill="#ffffff"/><g transform="translate(503.55,402.84) scale(2.518) rotate(0)"><path fill-rule="evenodd" clip-rule="evenodd" d="M10 20C15.5228 20 20 15.5228 20 10C20 4.47715 15.5228 0 10 0C4.47715 0 0 4.47715 0 10C0 15.5228 4.47715 20 10 20ZM10 17C13.866 17 17 13.866 17 10C17 6.13401 13.866 3 10 3C6.13401 3 3 6.13401 3 10C3 13.866 6.13401 17 10 17Z" fill="#bbe7ff"/></g><rect x="50.355399999999996" y="453.19859999999994" width="50.355399999999996" height="50.355399999999996" fill="#ffffff"/><g transform="translate(75.53,453.2) scale(1.259) rotate(0)"><path fill-rule="evenodd" clip-rule="evenodd" d="M10 20C15.5228 20 20 15.5228 20 10C20 4.47715 15.5228 0 10 0C4.47715 0 0 4.47715 0 10C0 15.5228 4.47715 20 10 20ZM10 17C13.866 17 17 13.866 17 10C17 6.13401 13.866 3 10 3C6.13401 3 3 6.13401 3 10C3 13.866 6.13401 17 10 17Z" fill="#cfeeff"/></g><g transform="translate(251.78,453.2) scale(2.518) rotate(0)"><rect width="20" height="10" fill="#f3fbff"/></g><rect x="302.13239999999996" y="453.19859999999994" width="50.355399999999996" height="50.355399999999996" fill="#ffffff"/><circle cx="339.9" cy="490.96999999999997" r="12.59" fill="#ffd0cd"/><g transform="translate(352.49,453.2) scale(2.518) rotate(0)"><rect width="20" height="2" fill="#ffd5d2"/><rect y="4" width="20" height="2" fill="#ffd5d2"/><rect y="8" width="20" height="2" fill="#ffd5d2"/><rect y="12" width="20" height="2" fill="#ffd5d2"/><rect y="16" width="20" height="2" fill="#ffd5d2"/></g><circle cx="428.02" cy="478.38" r="25.18" fill="#eef9ff"/><rect x="453.19859999999994" y="453.19859999999994" width="50.355399999999996" height="50.355399999999996" fill="#ffffff"/></g></svg>