<svg xmlns="http://www.w3.org/2000/svg" version="1.1" xmlns:xlink="http://www.w3.org/1999/xlink" xmlns:svgjs="http://svgjs.dev/svgjs" viewBox="0 0 800 800"><circle r="6.5" cx="653" cy="702" fill="hsl(204, 74%, 68%)" opacity="0.70"></circle><circle r="10.5" cx="489" cy="672" fill="hsl(209, 74%, 68%)" opacity="0.22"></circle><circle r="7.5" cx="699" cy="164" fill="hsl(206, 74%, 68%)" opacity="0.33"></circle><circle r="11.5" cx="782" cy="149" fill="hsl(212, 74%, 68%)" opacity="0.60"></circle><circle r="9.5" cx="368" cy="667" fill="hsl(209, 74%, 68%)" opacity="0.12"></circle><circle r="8" cx="276" cy="717" fill="hsl(206, 74%, 68%)" opacity="0.82"></circle><circle r="6.5" cx="655" cy="214" fill="hsl(204, 74%, 68%)" opacity="0.84"></circle><circle r="7" cx="233" cy="477" fill="hsl(205, 74%, 68%)" opacity="0.42"></circle><circle r="6" cx="49" cy="180" fill="hsl(204, 74%, 68%)" opacity="0.20"></circle><circle r="10.5" cx="785" cy="115" fill="hsl(213, 74%, 68%)" opacity="0.48"></circle><circle r="6.5" cx="47" cy="506" fill="hsl(204, 74%, 68%)" opacity="0.24"></circle><circle r="10" cx="404" cy="654" fill="hsl(210, 74%, 68%)" opacity="0.52"></circle><circle r="7" cx="561" cy="784" fill="hsl(206, 74%, 68%)" opacity="0.29"></circle><circle r="6" cx="15" cy="488" fill="hsl(203, 74%, 68%)" opacity="0.42"></circle><circle r="6.5" cx="45" cy="470" fill="hsl(204, 74%, 68%)" opacity="0.61"></circle><circle r="9.5" cx="502" cy="171" fill="hsl(209, 74%, 68%)" opacity="0.96"></circle><circle r="8.5" cx="584" cy="121" fill="hsl(207, 74%, 68%)" opacity="0.57"></circle><circle r="9.5" cx="782" cy="294" fill="hsl(209, 74%, 68%)" opacity="0.30"></circle><circle r="10.5" cx="449" cy="223" fill="hsl(211, 74%, 68%)" opacity="0.18"></circle><circle r="7.5" cx="110" cy="140" fill="hsl(206, 74%, 68%)" opacity="0.74"></circle><circle r="7" cx="603" cy="634" fill="hsl(204, 74%, 68%)" opacity="0.83"></circle><circle r="10.5" cx="229" cy="86" fill="hsl(209, 74%, 68%)" opacity="0.51"></circle><circle r="6.5" cx="608" cy="473" fill="hsl(204, 74%, 68%)" opacity="0.93"></circle><circle r="7" cx="139" cy="715" fill="hsl(205, 74%, 68%)" opacity="0.24"></circle><circle r="7" cx="176" cy="608" fill="hsl(205, 74%, 68%)" opacity="0.42"></circle><circle r="8" cx="719" cy="409" fill="hsl(206, 74%, 68%)" opacity="0.14"></circle><circle r="10" cx="355" cy="543" fill="hsl(209, 74%, 68%)" opacity="0.55"></circle><circle r="6" cx="19" cy="723" fill="hsl(203, 74%, 68%)" opacity="0.43"></circle><circle r="9.5" cx="782" cy="260" fill="hsl(209, 74%, 68%)" opacity="0.60"></circle><circle r="8.5" cx="538" cy="164" fill="hsl(207, 74%, 68%)" opacity="0.66"></circle><circle r="9.5" cx="380" cy="569" fill="hsl(210, 74%, 68%)" opacity="0.73"></circle><circle r="7.5" cx="595" cy="671" fill="hsl(204, 74%, 68%)" opacity="0.77"></circle><circle r="7.5" cx="271" cy="309" fill="hsl(206, 74%, 68%)" opacity="0.21"></circle><circle r="9" cx="687" cy="105" fill="hsl(208, 74%, 68%)" opacity="0.76"></circle><circle r="7" cx="164" cy="648" fill="hsl(205, 74%, 68%)" opacity="0.64"></circle><circle r="8" cx="293" cy="752" fill="hsl(206, 74%, 68%)" opacity="0.53"></circle><circle r="8" cx="271" cy="145" fill="hsl(207, 74%, 68%)" opacity="0.92"></circle><circle r="7" cx="261" cy="749" fill="hsl(205, 74%, 68%)" opacity="0.10"></circle><circle r="11.5" cx="464" cy="79" fill="hsl(212, 74%, 68%)" opacity="0.24"></circle><circle r="8.5" cx="713" cy="675" fill="hsl(206, 74%, 68%)" opacity="0.41"></circle><circle r="6" cx="75" cy="451" fill="hsl(204, 74%, 68%)" opacity="0.19"></circle><circle r="8" cx="87" cy="114" fill="hsl(206, 74%, 68%)" opacity="0.72"></circle><circle r="10" cx="547" cy="48" fill="hsl(211, 74%, 68%)" opacity="0.85"></circle><circle r="7.5" cx="243" cy="163" fill="hsl(206, 74%, 68%)" opacity="0.23"></circle><circle r="6" cx="17" cy="556" fill="hsl(203, 74%, 68%)" opacity="0.67"></circle><circle r="8.5" cx="785" cy="705" fill="hsl(209, 74%, 68%)" opacity="0.27"></circle><circle r="8.5" cx="334" cy="294" fill="hsl(208, 74%, 68%)" opacity="0.13"></circle><circle r="7" cx="215" cy="543" fill="hsl(205, 74%, 68%)" opacity="0.25"></circle><circle r="7" cx="50" cy="750" fill="hsl(204, 74%, 68%)" opacity="0.42"></circle><circle r="7" cx="105" cy="705" fill="hsl(205, 74%, 68%)" opacity="0.24"></circle><circle r="10.5" cx="379" cy="179" fill="hsl(210, 74%, 68%)" opacity="0.92"></circle><circle r="10.5" cx="473" cy="16" fill="hsl(212, 74%, 68%)" opacity="0.94"></circle><circle r="6.5" cx="199" cy="478" fill="hsl(205, 74%, 68%)" opacity="0.87"></circle><circle r="9.5" cx="786" cy="48" fill="hsl(213, 74%, 68%)" opacity="0.85"></circle><circle r="7" cx="218" cy="600" fill="hsl(205, 74%, 68%)" opacity="0.57"></circle><circle r="5.5" cx="17" cy="230" fill="hsl(203, 74%, 68%)" opacity="0.87"></circle><circle r="9" cx="164" cy="116" fill="hsl(208, 74%, 68%)" opacity="0.80"></circle><circle r="7" cx="167" cy="498" fill="hsl(205, 74%, 68%)" opacity="0.14"></circle><circle r="7" cx="596" cy="296" fill="hsl(204, 74%, 68%)" opacity="0.28"></circle><circle r="5.5" cx="23" cy="785" fill="hsl(203, 74%, 68%)" opacity="0.78"></circle><circle r="7" cx="255" cy="347" fill="hsl(205, 74%, 68%)" opacity="0.51"></circle><circle r="7" cx="137" cy="471" fill="hsl(205, 74%, 68%)" opacity="0.51"></circle><circle r="8" cx="292" cy="684" fill="hsl(206, 74%, 68%)" opacity="0.63"></circle><circle r="10.5" cx="493" cy="634" fill="hsl(209, 74%, 68%)" opacity="0.13"></circle><circle r="7" cx="232" cy="511" fill="hsl(205, 74%, 68%)" opacity="0.20"></circle><circle r="6.5" cx="51" cy="607" fill="hsl(204, 74%, 68%)" opacity="0.57"></circle><circle r="7" cx="283" cy="367" fill="hsl(206, 74%, 68%)" opacity="0.76"></circle><circle r="11" cx="408" cy="44" fill="hsl(212, 74%, 68%)" opacity="0.99"></circle><circle r="10" cx="782" cy="599" fill="hsl(209, 74%, 68%)" opacity="0.96"></circle><circle r="7.5" cx="255" cy="686" fill="hsl(205, 74%, 68%)" opacity="0.10"></circle><circle r="8.5" cx="530" cy="337" fill="hsl(207, 74%, 68%)" opacity="0.92"></circle><circle r="7" cx="111" cy="535" fill="hsl(205, 74%, 68%)" opacity="0.99"></circle><circle r="12" cx="512" cy="20" fill="hsl(212, 74%, 68%)" opacity="0.18"></circle><circle r="9.5" cx="361" cy="507" fill="hsl(209, 74%, 68%)" opacity="0.24"></circle><circle r="7.5" cx="705" cy="747" fill="hsl(205, 74%, 68%)" opacity="0.68"></circle><circle r="7.5" cx="710" cy="295" fill="hsl(205, 74%, 68%)" opacity="0.27"></circle><circle r="9.5" cx="362" cy="146" fill="hsl(209, 74%, 68%)" opacity="0.16"></circle><circle r="11" cx="291" cy="55" fill="hsl(210, 74%, 68%)" opacity="0.77"></circle><circle r="9.5" cx="525" cy="658" fill="hsl(208, 74%, 68%)" opacity="0.84"></circle><circle r="8" cx="674" cy="139" fill="hsl(206, 74%, 68%)" opacity="0.50"></circle><circle r="7" cx="254" cy="248" fill="hsl(205, 74%, 68%)" opacity="0.41"></circle><circle r="7" cx="164" cy="221" fill="hsl(205, 74%, 68%)" opacity="0.41"></circle><circle r="8.5" cx="710" cy="131" fill="hsl(208, 74%, 68%)" opacity="0.39"></circle><circle r="8" cx="299" cy="494" fill="hsl(206, 74%, 68%)" opacity="0.20"></circle><circle r="7" cx="119" cy="402" fill="hsl(205, 74%, 68%)" opacity="0.86"></circle><circle r="8" cx="347" cy="367" fill="hsl(208, 74%, 68%)" opacity="0.87"></circle><circle r="7" cx="115" cy="743" fill="hsl(205, 74%, 68%)" opacity="0.91"></circle><circle r="7" cx="580" cy="574" fill="hsl(205, 74%, 68%)" opacity="0.57"></circle><circle r="7" cx="80" cy="727" fill="hsl(205, 74%, 68%)" opacity="0.32"></circle><circle r="7.5" cx="606" cy="155" fill="hsl(205, 74%, 68%)" opacity="0.59"></circle><circle r="9" cx="518" cy="239" fill="hsl(208, 74%, 68%)" opacity="0.44"></circle><circle r="9.5" cx="530" cy="97" fill="hsl(210, 74%, 68%)" opacity="0.99"></circle><circle r="6.5" cx="114" cy="437" fill="hsl(205, 74%, 68%)" opacity="0.28"></circle><circle r="10" cx="416" cy="751" fill="hsl(210, 74%, 68%)" opacity="0.70"></circle><circle r="10.5" cx="382" cy="430" fill="hsl(210, 74%, 68%)" opacity="0.19"></circle><circle r="9" cx="334" cy="483" fill="hsl(208, 74%, 68%)" opacity="0.60"></circle><circle r="7.5" cx="289" cy="400" fill="hsl(206, 74%, 68%)" opacity="0.49"></circle><circle r="7" cx="85" cy="677" fill="hsl(205, 74%, 68%)" opacity="0.33"></circle><circle r="9.5" cx="398" cy="290" fill="hsl(210, 74%, 68%)" opacity="0.87"></circle><circle r="6.5" cx="134" cy="233" fill="hsl(205, 74%, 68%)" opacity="0.69"></circle><circle r="8.5" cx="745" cy="617" fill="hsl(207, 74%, 68%)" opacity="0.30"></circle><circle r="10" cx="216" cy="17" fill="hsl(211, 74%, 68%)" opacity="0.29"></circle><circle r="9" cx="323" cy="227" fill="hsl(207, 74%, 68%)" opacity="0.97"></circle><circle r="6.5" cx="621" cy="224" fill="hsl(204, 74%, 68%)" opacity="0.79"></circle><circle r="9.5" cx="667" cy="76" fill="hsl(209, 74%, 68%)" opacity="0.80"></circle><circle r="7.5" cx="170" cy="183" fill="hsl(205, 74%, 68%)" opacity="0.16"></circle><circle r="10" cx="722" cy="47" fill="hsl(211, 74%, 68%)" opacity="0.25"></circle><circle r="8" cx="314" cy="363" fill="hsl(207, 74%, 68%)" opacity="0.38"></circle><circle r="9.5" cx="513" cy="303" fill="hsl(208, 74%, 68%)" opacity="0.84"></circle><circle r="6" cx="48" cy="342" fill="hsl(204, 74%, 68%)" opacity="0.33"></circle><circle r="9" cx="328" cy="755" fill="hsl(208, 74%, 68%)" opacity="0.18"></circle><circle r="11" cx="148" cy="18" fill="hsl(212, 74%, 68%)" opacity="0.92"></circle><circle r="7" cx="178" cy="537" fill="hsl(205, 74%, 68%)" opacity="0.36"></circle><circle r="10" cx="424" cy="488" fill="hsl(210, 74%, 68%)" opacity="0.68"></circle><circle r="8.5" cx="291" cy="530" fill="hsl(206, 74%, 68%)" opacity="0.49"></circle><circle r="6.5" cx="50" cy="573" fill="hsl(204, 74%, 68%)" opacity="0.69"></circle><circle r="6.5" cx="697" cy="440" fill="hsl(205, 74%, 68%)" opacity="0.55"></circle><circle r="11" cx="473" cy="299" fill="hsl(210, 74%, 68%)" opacity="0.81"></circle><circle r="6" cx="16" cy="523" fill="hsl(203, 74%, 68%)" opacity="0.60"></circle><circle r="6.5" cx="222" cy="375" fill="hsl(205, 74%, 68%)" opacity="0.83"></circle><circle r="10" cx="442" cy="185" fill="hsl(210, 74%, 68%)" opacity="0.33"></circle><circle r="9" cx="532" cy="622" fill="hsl(207, 74%, 68%)" opacity="0.89"></circle><circle r="6" cx="165" cy="335" fill="hsl(205, 74%, 68%)" opacity="0.46"></circle><circle r="6" cx="18" cy="690" fill="hsl(203, 74%, 68%)" opacity="0.37"></circle><circle r="6.5" cx="254" cy="382" fill="hsl(205, 74%, 68%)" opacity="0.22"></circle><circle r="10.5" cx="456" cy="651" fill="hsl(210, 74%, 68%)" opacity="0.14"></circle><circle r="8.5" cx="746" cy="278" fill="hsl(207, 74%, 68%)" opacity="0.58"></circle><circle r="6" cx="46" cy="640" fill="hsl(204, 74%, 68%)" opacity="0.43"></circle><circle r="7" cx="147" cy="433" fill="hsl(205, 74%, 68%)" opacity="0.96"></circle><circle r="9.5" cx="331" cy="330" fill="hsl(208, 74%, 68%)" opacity="0.66"></circle><circle r="11" cx="453" cy="737" fill="hsl(210, 74%, 68%)" opacity="0.14"></circle><circle r="6" cx="140" cy="630" fill="hsl(205, 74%, 68%)" opacity="0.68"></circle><circle r="7" cx="186" cy="246" fill="hsl(205, 74%, 68%)" opacity="0.39"></circle><circle r="6.5" cx="215" cy="299" fill="hsl(205, 74%, 68%)" opacity="0.61"></circle><circle r="9.5" cx="366" cy="276" fill="hsl(209, 74%, 68%)" opacity="0.19"></circle><circle r="6.5" cx="109" cy="648" fill="hsl(205, 74%, 68%)" opacity="0.41"></circle><circle r="10.5" cx="486" cy="714" fill="hsl(210, 74%, 68%)" opacity="0.96"></circle><circle r="8" cx="586" cy="438" fill="hsl(205, 74%, 68%)" opacity="0.61"></circle><circle r="6.5" cx="676" cy="275" fill="hsl(204, 74%, 68%)" opacity="0.11"></circle><circle r="6" cx="21" cy="74" fill="hsl(205, 74%, 68%)" opacity="0.74"></circle><circle r="7.5" cx="552" cy="234" fill="hsl(206, 74%, 68%)" opacity="0.25"></circle><circle r="8.5" cx="305" cy="652" fill="hsl(207, 74%, 68%)" opacity="0.49"></circle><circle r="9" cx="723" cy="102" fill="hsl(210, 74%, 68%)" opacity="0.76"></circle><circle r="6.5" cx="50" cy="540" fill="hsl(204, 74%, 68%)" opacity="0.59"></circle><circle r="8" cx="128" cy="113" fill="hsl(207, 74%, 68%)" opacity="0.60"></circle><circle r="10" cx="481" cy="236" fill="hsl(210, 74%, 68%)" opacity="0.40"></circle><circle r="7.5" cx="109" cy="611" fill="hsl(205, 74%, 68%)" opacity="0.99"></circle><circle r="9" cx="318" cy="554" fill="hsl(207, 74%, 68%)" opacity="0.97"></circle><circle r="6.5" cx="84" cy="355" fill="hsl(205, 74%, 68%)" opacity="0.20"></circle><circle r="10" cx="611" cy="49" fill="hsl(209, 74%, 68%)" opacity="0.59"></circle><circle r="8.5" cx="343" cy="449" fill="hsl(208, 74%, 68%)" opacity="0.58"></circle><circle r="8.5" cx="521" cy="562" fill="hsl(208, 74%, 68%)" opacity="0.39"></circle><circle r="7" cx="217" cy="264" fill="hsl(205, 74%, 68%)" opacity="0.41"></circle><circle r="10" cx="781" cy="16" fill="hsl(212, 74%, 68%)" opacity="0.78"></circle><circle r="10" cx="390" cy="726" fill="hsl(210, 74%, 68%)" opacity="0.42"></circle><circle r="7" cx="260" cy="784" fill="hsl(205, 74%, 68%)" opacity="0.65"></circle><circle r="8" cx="345" cy="725" fill="hsl(208, 74%, 68%)" opacity="0.18"></circle><circle r="6" cx="46" cy="148" fill="hsl(204, 74%, 68%)" opacity="0.54"></circle><circle r="8" cx="552" cy="127" fill="hsl(207, 74%, 68%)" opacity="0.87"></circle><circle r="7" cx="202" cy="632" fill="hsl(205, 74%, 68%)" opacity="0.53"></circle><circle r="7.5" cx="722" cy="714" fill="hsl(206, 74%, 68%)" opacity="0.93"></circle><circle r="6.5" cx="87" cy="292" fill="hsl(205, 74%, 68%)" opacity="0.95"></circle><circle r="9" cx="338" cy="168" fill="hsl(209, 74%, 68%)" opacity="0.59"></circle><circle r="10.5" cx="351" cy="17" fill="hsl(211, 74%, 68%)" opacity="0.67"></circle><circle r="9" cx="341" cy="646" fill="hsl(208, 74%, 68%)" opacity="0.60"></circle><circle r="8" cx="723" cy="187" fill="hsl(207, 74%, 68%)" opacity="0.26"></circle><circle r="6.5" cx="142" cy="596" fill="hsl(205, 74%, 68%)" opacity="0.70"></circle><circle r="6.5" cx="631" cy="369" fill="hsl(203, 74%, 68%)" opacity="0.95"></circle><circle r="7.5" cx="556" cy="417" fill="hsl(206, 74%, 68%)" opacity="0.28"></circle><circle r="7.5" cx="119" cy="366" fill="hsl(205, 74%, 68%)" opacity="1.00"></circle><circle r="6" cx="17" cy="589" fill="hsl(203, 74%, 68%)" opacity="0.43"></circle><circle r="7" cx="155" cy="301" fill="hsl(205, 74%, 68%)" opacity="0.81"></circle><circle r="9" cx="420" cy="785" fill="hsl(210, 74%, 68%)" opacity="0.77"></circle><circle r="5.5" cx="16" cy="167" fill="hsl(203, 74%, 68%)" opacity="0.52"></circle><circle r="8" cx="713" cy="484" fill="hsl(206, 74%, 68%)" opacity="0.34"></circle><circle r="5.5" cx="642" cy="742" fill="hsl(203, 74%, 68%)" opacity="0.81"></circle><circle r="8" cx="618" cy="118" fill="hsl(207, 74%, 68%)" opacity="0.39"></circle><circle r="8" cx="337" cy="260" fill="hsl(208, 74%, 68%)" opacity="0.24"></circle><circle r="10.5" cx="430" cy="590" fill="hsl(211, 74%, 68%)" opacity="0.85"></circle><circle r="7" cx="81" cy="191" fill="hsl(205, 74%, 68%)" opacity="0.57"></circle><circle r="9.5" cx="349" cy="201" fill="hsl(208, 74%, 68%)" opacity="0.18"></circle><circle r="5.5" cx="17" cy="357" fill="hsl(203, 74%, 68%)" opacity="0.30"></circle><circle r="6.5" cx="51" cy="213" fill="hsl(204, 74%, 68%)" opacity="0.47"></circle><circle r="6.5" cx="684" cy="343" fill="hsl(204, 74%, 68%)" opacity="0.59"></circle><circle r="8" cx="571" cy="268" fill="hsl(205, 74%, 68%)" opacity="0.13"></circle><circle r="7" cx="186" cy="701" fill="hsl(205, 74%, 68%)" opacity="0.44"></circle><circle r="10" cx="753" cy="119" fill="hsl(211, 74%, 68%)" opacity="0.89"></circle><circle r="8.5" cx="749" cy="686" fill="hsl(207, 74%, 68%)" opacity="0.65"></circle><circle r="6" cx="135" cy="332" fill="hsl(205, 74%, 68%)" opacity="0.13"></circle><circle r="9.5" cx="330" cy="684" fill="hsl(208, 74%, 68%)" opacity="0.13"></circle><circle r="10" cx="781" cy="633" fill="hsl(209, 74%, 68%)" opacity="0.15"></circle><circle r="6" cx="15" cy="454" fill="hsl(203, 74%, 68%)" opacity="0.53"></circle><circle r="7" cx="17" cy="45" fill="hsl(206, 74%, 68%)" opacity="0.85"></circle><circle r="8.5" cx="534" cy="489" fill="hsl(207, 74%, 68%)" opacity="0.39"></circle><circle r="8.5" cx="664" cy="15" fill="hsl(210, 74%, 68%)" opacity="0.74"></circle><circle r="10" cx="80" cy="18" fill="hsl(211, 74%, 68%)" opacity="0.79"></circle><circle r="7" cx="634" cy="663" fill="hsl(203, 74%, 68%)" opacity="0.11"></circle><circle r="11" cx="426" cy="714" fill="hsl(211, 74%, 68%)" opacity="0.45"></circle><circle r="8" cx="717" cy="224" fill="hsl(206, 74%, 68%)" opacity="0.46"></circle><circle r="8" cx="346" cy="784" fill="hsl(208, 74%, 68%)" opacity="0.35"></circle><circle r="7" cx="278" cy="272" fill="hsl(206, 74%, 68%)" opacity="0.69"></circle><circle r="10" cx="425" cy="269" fill="hsl(211, 74%, 68%)" opacity="0.35"></circle><circle r="6" cx="52" cy="373" fill="hsl(204, 74%, 68%)" opacity="0.71"></circle><circle r="8" cx="742" cy="752" fill="hsl(207, 74%, 68%)" opacity="0.49"></circle><circle r="5.5" cx="48" cy="308" fill="hsl(204, 74%, 68%)" opacity="0.47"></circle><circle r="6.5" cx="233" cy="195" fill="hsl(205, 74%, 68%)" opacity="0.32"></circle><circle r="6.5" cx="128" cy="674" fill="hsl(205, 74%, 68%)" opacity="0.93"></circle><circle r="10.5" cx="183" cy="18" fill="hsl(212, 74%, 68%)" opacity="0.35"></circle><circle r="8.5" cx="368" cy="344" fill="hsl(209, 74%, 68%)" opacity="0.31"></circle><circle r="6.5" cx="631" cy="185" fill="hsl(204, 74%, 68%)" opacity="0.75"></circle><circle r="5.5" cx="16" cy="420" fill="hsl(203, 74%, 68%)" opacity="0.66"></circle><circle r="10" cx="247" cy="19" fill="hsl(211, 74%, 68%)" opacity="0.58"></circle><circle r="6.5" cx="636" cy="781" fill="hsl(203, 74%, 68%)" opacity="0.19"></circle><circle r="7.5" cx="637" cy="294" fill="hsl(203, 74%, 68%)" opacity="0.64"></circle><circle r="10.5" cx="461" cy="430" fill="hsl(210, 74%, 68%)" opacity="0.45"></circle><circle r="7.5" cx="262" cy="593" fill="hsl(205, 74%, 68%)" opacity="0.67"></circle><circle r="9.5" cx="90" cy="52" fill="hsl(209, 74%, 68%)" opacity="0.51"></circle><circle r="8.5" cx="326" cy="394" fill="hsl(208, 74%, 68%)" opacity="0.16"></circle><circle r="10" cx="394" cy="600" fill="hsl(210, 74%, 68%)" opacity="0.87"></circle><circle r="8.5" cx="305" cy="156" fill="hsl(207, 74%, 68%)" opacity="0.23"></circle><circle r="6" cx="48" cy="245" fill="hsl(204, 74%, 68%)" opacity="0.37"></circle><circle r="8" cx="718" cy="560" fill="hsl(206, 74%, 68%)" opacity="0.86"></circle><circle r="11" cx="458" cy="263" fill="hsl(210, 74%, 68%)" opacity="0.69"></circle><circle r="7" cx="187" cy="390" fill="hsl(205, 74%, 68%)" opacity="0.39"></circle><circle r="10" cx="782" cy="668" fill="hsl(209, 74%, 68%)" opacity="0.15"></circle><circle r="8.5" cx="744" cy="651" fill="hsl(207, 74%, 68%)" opacity="0.85"></circle><circle r="7.5" cx="217" cy="143" fill="hsl(206, 74%, 68%)" opacity="0.78"></circle><circle r="11" cx="488" cy="52" fill="hsl(212, 74%, 68%)" opacity="0.36"></circle><circle r="7.5" cx="747" cy="784" fill="hsl(207, 74%, 68%)" opacity="0.93"></circle><circle r="7" cx="689" cy="707" fill="hsl(205, 74%, 68%)" opacity="0.79"></circle><circle r="5.5" cx="18" cy="389" fill="hsl(203, 74%, 68%)" opacity="0.48"></circle><circle r="9.5" cx="783" cy="492" fill="hsl(209, 74%, 68%)" opacity="0.85"></circle><circle r="5.5" cx="17" cy="262" fill="hsl(203, 74%, 68%)" opacity="0.48"></circle><circle r="6" cx="666" cy="641" fill="hsl(204, 74%, 68%)" opacity="0.66"></circle><circle r="6" cx="16" cy="657" fill="hsl(203, 74%, 68%)" opacity="0.40"></circle><circle r="9.5" cx="783" cy="563" fill="hsl(209, 74%, 68%)" opacity="0.77"></circle><circle r="10" cx="423" cy="627" fill="hsl(210, 74%, 68%)" opacity="0.71"></circle><circle r="10" cx="430" cy="674" fill="hsl(211, 74%, 68%)" opacity="0.90"></circle><circle r="11" cx="782" cy="82" fill="hsl(213, 74%, 68%)" opacity="0.91"></circle><circle r="6.5" cx="86" cy="387" fill="hsl(205, 74%, 68%)" opacity="0.48"></circle><circle r="8" cx="203" cy="113" fill="hsl(207, 74%, 68%)" opacity="0.97"></circle><circle r="9" cx="521" cy="781" fill="hsl(208, 74%, 68%)" opacity="0.34"></circle><circle r="10" cx="423" cy="337" fill="hsl(210, 74%, 68%)" opacity="0.16"></circle><circle r="9" cx="749" cy="581" fill="hsl(207, 74%, 68%)" opacity="0.64"></circle><circle r="11" cx="114" cy="18" fill="hsl(212, 74%, 68%)" opacity="0.95"></circle><circle r="10.5" cx="398" cy="690" fill="hsl(210, 74%, 68%)" opacity="0.97"></circle><circle r="7" cx="684" cy="405" fill="hsl(204, 74%, 68%)" opacity="0.87"></circle><circle r="10.5" cx="396" cy="363" fill="hsl(210, 74%, 68%)" opacity="0.85"></circle><circle r="5.5" cx="16" cy="134" fill="hsl(203, 74%, 68%)" opacity="0.98"></circle><circle r="8" cx="713" cy="599" fill="hsl(206, 74%, 68%)" opacity="0.45"></circle><circle r="9.5" cx="385" cy="782" fill="hsl(210, 74%, 68%)" opacity="0.71"></circle><circle r="9.5" cx="507" cy="369" fill="hsl(209, 74%, 68%)" opacity="0.82"></circle><circle r="7" cx="111" cy="174" fill="hsl(205, 74%, 68%)" opacity="0.45"></circle><circle r="7" cx="689" cy="201" fill="hsl(205, 74%, 68%)" opacity="0.61"></circle><circle r="7" cx="52" cy="116" fill="hsl(205, 74%, 68%)" opacity="0.99"></circle><circle r="10" cx="437" cy="103" fill="hsl(211, 74%, 68%)" opacity="0.32"></circle><circle r="7" cx="565" cy="197" fill="hsl(205, 74%, 68%)" opacity="0.93"></circle><circle r="6" cx="16" cy="622" fill="hsl(203, 74%, 68%)" opacity="0.73"></circle><circle r="6.5" cx="83" cy="229" fill="hsl(205, 74%, 68%)" opacity="0.91"></circle><circle r="6.5" cx="51" cy="672" fill="hsl(204, 74%, 68%)" opacity="0.81"></circle><circle r="10.5" cx="484" cy="399" fill="hsl(210, 74%, 68%)" opacity="1.00"></circle><circle r="7" cx="646" cy="405" fill="hsl(203, 74%, 68%)" opacity="0.33"></circle><circle r="7.5" cx="16" cy="15" fill="hsl(208, 74%, 68%)" opacity="0.93"></circle><circle r="6.5" cx="159" cy="685" fill="hsl(205, 74%, 68%)" opacity="0.74"></circle><circle r="8" cx="540" cy="380" fill="hsl(207, 74%, 68%)" opacity="0.18"></circle><circle r="7" cx="599" cy="781" fill="hsl(204, 74%, 68%)" opacity="0.81"></circle><circle r="7.5" cx="729" cy="448" fill="hsl(206, 74%, 68%)" opacity="0.42"></circle><circle r="10.5" cx="415" cy="558" fill="hsl(210, 74%, 68%)" opacity="0.46"></circle><circle r="7.5" cx="293" cy="334" fill="hsl(206, 74%, 68%)" opacity="0.33"></circle><circle r="7" cx="682" cy="573" fill="hsl(204, 74%, 68%)" opacity="0.34"></circle><circle r="7" cx="170" cy="459" fill="hsl(205, 74%, 68%)" opacity="0.74"></circle><circle r="8" cx="541" cy="447" fill="hsl(207, 74%, 68%)" opacity="0.52"></circle><circle r="7.5" cx="573" cy="611" fill="hsl(205, 74%, 68%)" opacity="0.21"></circle><circle r="10" cx="474" cy="525" fill="hsl(210, 74%, 68%)" opacity="0.37"></circle><circle r="6.5" cx="625" cy="440" fill="hsl(204, 74%, 68%)" opacity="0.51"></circle><circle r="6" cx="106" cy="326" fill="hsl(205, 74%, 68%)" opacity="0.96"></circle><circle r="9" cx="489" cy="555" fill="hsl(209, 74%, 68%)" opacity="0.74"></circle><circle r="7" cx="586" cy="231" fill="hsl(205, 74%, 68%)" opacity="0.40"></circle><circle r="9.5" cx="518" cy="526" fill="hsl(208, 74%, 68%)" opacity="0.19"></circle></svg>